<svg xmlns="http://www.w3.org/2000/svg" viewBox="0 0 32 32" width="32" height="32" role="img" aria-label="bitcoinburned flame">
  <defs>
    <radialGradient id="ember" cx="34%" cy="24%" r="88%">
      <stop offset="0%" stop-color="#FFA733"/>
      <stop offset="52%" stop-color="#E23B18"/>
      <stop offset="100%" stop-color="#7A1E0C"/>
    </radialGradient>
  </defs>
  <rect width="32" height="32" rx="7.5" fill="url(#ember)"/>
  <!-- outer flame, cream -->
  <path fill="#FDEEDA" d="M16.7 3.6c.9 3-.5 5-2 6.9-1.1 1.4-2.2 2.8-2.2 4.6 0 .7.2 1.3.6 1.9-1.1-.3-2-1.2-2.4-2.4-1.6 1.9-2.6 4-2.6 6.3 0 4.3 3.5 7.5 7.9 7.5s7.9-3.4 7.9-7.9c0-3.2-1.7-5.6-3.4-7.7-.6 1.2-1.6 1.9-2.9 2 1.3-2.3 1.6-4.9.6-7.4-.4-1.1-1-2.2-1.6-3.3z"/>
  <!-- inner hot core -->
  <path fill="#FFC061" d="M16.2 15.2c1.6 1.7 2.8 3.4 2.8 5.6 0 2.3-1.4 4-3 4s-3-1.5-3-3.6c0-1.3.7-2.4 1.5-3.4-.1.7.1 1.4.6 1.9.7-1.5.7-3.1 1.1-4.5z"/>
</svg>
